<?xml version="1.0" encoding="utf-8"?>
<!-- Generator: Adobe Illustrator 15.1.0, SVG Export Plug-In . SVG Version: 6.00 Build 0)  -->
<!DOCTYPE svg PUBLIC "-//W3C//DTD SVG 1.1//EN" "http://www.w3.org/Graphics/SVG/1.1/DTD/svg11.dtd">
<svg version="1.1" xmlns="http://www.w3.org/2000/svg" xmlns:xlink="http://www.w3.org/1999/xlink" x="0px" y="0px" width="180px"
	 height="180px" viewBox="0 0 180 180" enable-background="new 0 0 180 180" xml:space="preserve">
<g id="Layer_1">
	
		<circle fill-rule="evenodd" clip-rule="evenodd" fill="#FFFFFF" stroke="#FA0E6A" stroke-width="6" stroke-miterlimit="10" cx="90" cy="90" r="86"/>
</g>
<g id="Layer_2">
	<g>
		<defs>
			<circle id="SVGID_1_" cx="90" cy="90" r="89"/>
		</defs>
		<clipPath id="SVGID_2_">
			<use xlink:href="#SVGID_1_"  overflow="visible"/>
		</clipPath>
		
			<radialGradient id="SVGID_3_" cx="90.498" cy="171.0098" r="79.0713" gradientTransform="matrix(0.9957 0 0 0.0996 0.7204 140.7143)" gradientUnits="userSpaceOnUse">
			<stop  offset="0" style="stop-color:#231F20;stop-opacity:0.15"/>
			<stop  offset="1" style="stop-color:#231F20;stop-opacity:0"/>
		</radialGradient>
		
			<rect x="2.5" y="153" clip-path="url(#SVGID_2_)" fill-rule="evenodd" clip-rule="evenodd" fill="url(#SVGID_3_)" width="175" height="15"/>
	</g>
	<g>
		<path fill-rule="evenodd" clip-rule="evenodd" fill="#F5F5F5" d="M30,79.5h120c1.344,0,2.5,1.149,2.5,2.5v74
			c0,1.344-1.156,2.5-2.5,2.5H30c-1.344,0-2.5-1.156-2.5-2.5V82C27.5,80.65,28.656,79.5,30,79.5z"/>
		<linearGradient id="SVGID_4_" gradientUnits="userSpaceOnUse" x1="57" y1="132.5" x2="57" y2="145.5">
			<stop  offset="0" style="stop-color:#97BE55"/>
			<stop  offset="1" style="stop-color:#88AF51"/>
		</linearGradient>
		<polygon fill-rule="evenodd" clip-rule="evenodd" fill="url(#SVGID_4_)" points="27.5,132.5 86.5,132.5 82.5,145.5 27.5,145.5 		
			"/>
		<linearGradient id="SVGID_5_" gradientUnits="userSpaceOnUse" x1="89.9995" y1="106.5" x2="89.9995" y2="119.5">
			<stop  offset="0" style="stop-color:#97BE55"/>
			<stop  offset="1" style="stop-color:#88AF51"/>
		</linearGradient>
		<rect x="27.5" y="106.5" fill-rule="evenodd" clip-rule="evenodd" fill="url(#SVGID_5_)" width="125" height="13"/>
		<linearGradient id="SVGID_6_" gradientUnits="userSpaceOnUse" x1="89.9995" y1="119.5" x2="89.9995" y2="132.5">
			<stop  offset="0" style="stop-color:#97BE55"/>
			<stop  offset="1" style="stop-color:#88AF51"/>
		</linearGradient>
		<rect x="27.5" y="119.5" fill-rule="evenodd" clip-rule="evenodd" fill="url(#SVGID_6_)" width="125" height="13"/>
		
			<line opacity="0.05" fill-rule="evenodd" clip-rule="evenodd" fill="none" stroke="#000000" stroke-miterlimit="10" x1="135" y1="158.5" x2="135" y2="106.5"/>
		
			<line opacity="0.05" fill-rule="evenodd" clip-rule="evenodd" fill="none" stroke="#000000" stroke-miterlimit="10" x1="45" y1="158.5" x2="45" y2="106.5"/>
		
			<line opacity="0.05" fill-rule="evenodd" clip-rule="evenodd" fill="none" stroke="#000000" stroke-miterlimit="10" x1="63" y1="158.5" x2="63" y2="106.5"/>
		
			<line opacity="0.05" fill-rule="evenodd" clip-rule="evenodd" fill="none" stroke="#000000" stroke-miterlimit="10" x1="81" y1="158.5" x2="81" y2="106.5"/>
		
			<line opacity="0.05" fill-rule="evenodd" clip-rule="evenodd" fill="none" stroke="#000000" stroke-miterlimit="10" x1="99" y1="158.5" x2="99" y2="106.5"/>
		
			<line opacity="0.05" fill-rule="evenodd" clip-rule="evenodd" fill="none" stroke="#000000" stroke-miterlimit="10" x1="117" y1="158.5" x2="117" y2="106.5"/>
	</g>
</g>
<g id="Layer_3" display="none">
	<rect x="13.785" y="57" display="inline" fill-rule="evenodd" clip-rule="evenodd" fill="none" width="152.43" height="18.262"/>
	<text transform="matrix(1 0 0 1 29.2026 67.728)" display="inline"><tspan x="0" y="0" fill="#999999" font-family="'Omnes-Medium'" font-size="12">of power available n</tspan><tspan x="106.198" y="0" fill="#999999" font-family="'Omnes-Medium'" font-size="12">o</tspan><tspan x="113.074" y="0" fill="#999999" font-family="'Omnes-Medium'" font-size="12">w</tspan></text>
	<rect x="42.262" y="26" display="inline" fill-rule="evenodd" clip-rule="evenodd" fill="none" width="95.475" height="36.525"/>
	<text transform="matrix(1 0 0 1 49.1626 50.0029)" display="inline"><tspan x="0" y="0" fill="#515252" font-family="'Omnes'" font-size="27">17 d</tspan><tspan x="43.307" y="0" fill="#515252" font-family="'Omnes'" font-size="27">a</tspan><tspan x="56.672" y="0" fill="#515252" font-family="'Omnes'" font-size="27">ys</tspan></text>
	
		<rect x="31.125" y="85.737" display="inline" fill-rule="evenodd" clip-rule="evenodd" fill="none" width="117.75" height="19.763"/>
	<text transform="matrix(1 0 0 1 71.2739 96.4639)" display="inline"><tspan x="0" y="0" fill="#6C6C6C" font-family="'Omnes-Medium'" font-size="12">A</tspan><tspan x="7.56" y="0" fill="#6C6C6C" font-family="'Omnes-Medium'" font-size="12">u</tspan><tspan x="14.412" y="0" fill="#6C6C6C" font-family="'Omnes-Medium'" font-size="12">g</tspan><tspan x="20.7" y="0" fill="#6C6C6C" font-family="'Omnes-Medium'" font-size="12">ust</tspan></text>
</g>
<g id="Layer_3_copy">
	<g>
		<path fill="#999999" d="M29.586,64.837c0-1.763,1.248-3.022,3.034-3.022c1.763,0,3.01,1.271,3.01,3.046
			c0,1.763-1.247,3.022-3.022,3.022C30.822,67.884,29.586,66.625,29.586,64.837z M34.528,64.862c0-1.2-0.804-2.075-1.919-2.075
			c-1.104,0-1.931,0.864-1.931,2.051c0,1.188,0.828,2.075,1.931,2.075C33.712,66.913,34.528,66.037,34.528,64.862z"/>
		<path fill="#999999" d="M36.762,62.931c-0.384,0-0.528-0.156-0.528-0.456v-0.084c0-0.288,0.144-0.432,0.528-0.432h0.672v-0.432
			c0-1.451,0.684-2.123,1.835-2.123c0.887,0,1.295,0.372,1.295,0.779c0,0.336-0.264,0.54-0.288,0.516
			c-0.168-0.167-0.504-0.335-0.863-0.335c-0.576,0-0.828,0.359-0.828,1.175v0.419h0.971c0.384,0,0.528,0.156,0.528,0.444v0.084
			c0,0.288-0.144,0.444-0.528,0.444h-0.947v4.282c0,0.432-0.204,0.563-0.516,0.563h-0.12c-0.312,0-0.54-0.132-0.54-0.563v-4.282
			H36.762z"/>
		<path fill="#999999" d="M44.573,69.515c0,0.432-0.228,0.563-0.528,0.563h-0.132c-0.312,0-0.528-0.132-0.528-0.563v-7.484
			c0-0.036,0.192-0.132,0.432-0.132c0.359,0,0.731,0.192,0.743,0.995c0.456-0.671,1.116-1.079,2.027-1.079
			c1.547,0,2.699,1.187,2.699,3.022c0,1.811-1.139,3.046-2.734,3.046c-0.948,0-1.655-0.516-1.979-1.079V69.515z M44.561,65.209
			c0,0.971,0.816,1.691,1.775,1.691c1.079,0,1.799-0.828,1.799-2.051c0-1.199-0.744-2.051-1.775-2.051
			c-0.875,0-1.499,0.468-1.799,1.199C44.561,63.986,44.561,65.209,44.561,65.209z"/>
		<path fill="#999999" d="M50.178,64.837c0-1.763,1.248-3.022,3.034-3.022c1.763,0,3.01,1.271,3.01,3.046
			c0,1.763-1.247,3.022-3.022,3.022C51.414,67.884,50.178,66.625,50.178,64.837z M55.12,64.862c0-1.2-0.804-2.075-1.919-2.075
			c-1.104,0-1.931,0.864-1.931,2.051c0,1.188,0.828,2.075,1.931,2.075C54.304,66.913,55.12,66.037,55.12,64.862z"/>
		<path fill="#999999" d="M58.41,67.416l-1.439-5.169c-0.024-0.072,0.36-0.348,0.708-0.348c0.252,0,0.528,0.144,0.624,0.635
			l0.899,4.042l1.104-3.49c0.084-0.288,0.288-0.419,0.731-0.419c0.432,0,0.636,0.132,0.72,0.419l1.067,3.466l0.887-4.018
			c0.084-0.492,0.372-0.635,0.612-0.635c0.348,0,0.696,0.288,0.684,0.348l-1.427,5.169c-0.072,0.288-0.288,0.384-0.72,0.384
			c-0.492,0-0.624-0.096-0.731-0.419l-1.115-3.49l-1.151,3.49c-0.108,0.312-0.252,0.419-0.72,0.419
			C58.709,67.8,58.494,67.704,58.41,67.416z"/>
		<path fill="#999999" d="M68.825,66.948c1.007,0,1.511-0.443,1.811-0.959c0.024-0.024,0.624,0.084,0.624,0.588
			s-0.887,1.307-2.458,1.307c-1.823,0-3.046-1.211-3.046-3.01c0-1.751,1.248-3.058,2.95-3.058c1.667,0,2.771,1.175,2.771,2.902
			v0.096c0,0.252-0.084,0.348-0.36,0.348H66.87C66.954,66.217,67.733,66.948,68.825,66.948z M70.324,64.358
			c-0.06-0.996-0.671-1.643-1.631-1.643c-0.948,0-1.679,0.684-1.823,1.643H70.324z"/>
		<path fill="#999999" d="M75.34,61.815c0.6,0,0.948,0.288,0.948,0.768c0,0.456-0.336,0.636-0.36,0.611
			c-0.18-0.144-0.408-0.251-0.732-0.251c-0.936,0-1.307,0.911-1.307,2.243v2.027c0,0.432-0.228,0.563-0.528,0.563h-0.132
			c-0.312,0-0.528-0.132-0.528-0.563v-5.181c0-0.036,0.192-0.132,0.432-0.132c0.359,0,0.731,0.192,0.743,1.007
			C74.129,62.199,74.609,61.815,75.34,61.815z"/>
		<path fill="#999999" d="M83.14,64.142c0-0.875-0.504-1.355-1.427-1.355c-0.875,0-1.392,0.456-1.655,0.983
			c0,0.012-0.731,0-0.731-0.576c0-0.552,0.839-1.379,2.471-1.379c1.631,0,2.519,0.839,2.519,2.303v3.538
			c0,0.06-0.216,0.132-0.432,0.132c-0.419,0-0.719-0.228-0.731-0.936c-0.432,0.624-1.188,1.007-2.075,1.007
			c-1.235,0-1.967-0.66-1.967-1.643c0-1.331,1.271-1.907,3.874-1.955h0.156V64.142z M83.14,65.449v-0.444l-0.324,0.012
			c-1.679,0.06-2.542,0.372-2.542,1.151c0,0.516,0.408,0.839,1.091,0.839C82.396,67.008,83.14,66.361,83.14,65.449z"/>
		<path fill="#999999" d="M88.109,66.661l1.487-4.054c0.204-0.564,0.432-0.708,0.732-0.708c0.372,0,0.635,0.288,0.611,0.348
			l-2.099,5.181c-0.108,0.264-0.348,0.372-0.731,0.372c-0.408,0-0.612-0.084-0.72-0.348l-2.123-5.205
			c-0.024-0.072,0.24-0.348,0.624-0.348c0.335,0,0.551,0.144,0.755,0.708L88.109,66.661z"/>
		<path fill="#999999" d="M95.644,64.142c0-0.875-0.504-1.355-1.428-1.355c-0.875,0-1.391,0.456-1.655,0.983
			c0,0.012-0.731,0-0.731-0.576c0-0.552,0.84-1.379,2.471-1.379c1.632,0,2.519,0.839,2.519,2.303v3.538
			c0,0.06-0.216,0.132-0.432,0.132c-0.42,0-0.72-0.228-0.731-0.936c-0.432,0.624-1.188,1.007-2.075,1.007
			c-1.235,0-1.967-0.66-1.967-1.643c0-1.331,1.271-1.907,3.874-1.955h0.156V64.142z M95.644,65.449v-0.444l-0.324,0.012
			c-1.679,0.06-2.542,0.372-2.542,1.151c0,0.516,0.407,0.839,1.091,0.839C94.899,67.008,95.644,66.361,95.644,65.449z"/>
		<path fill="#999999" d="M98.286,60.064c0-0.432,0.264-0.672,0.72-0.672c0.443,0,0.695,0.24,0.695,0.672
			c0,0.432-0.252,0.659-0.708,0.659C98.55,60.724,98.286,60.484,98.286,60.064z M98.394,67.212v-4.737
			c0-0.432,0.229-0.576,0.54-0.576h0.12c0.312,0,0.527,0.132,0.527,0.576v4.737c0,0.432-0.216,0.563-0.527,0.563h-0.12
			C98.622,67.776,98.394,67.644,98.394,67.212z"/>
		<path fill="#999999" d="M101.272,67.212v-7.592c0-0.036,0.204-0.132,0.432-0.132c0.372,0,0.756,0.192,0.756,1.019v6.705
			c0,0.432-0.216,0.563-0.527,0.563h-0.12C101.501,67.776,101.272,67.644,101.272,67.212z"/>
		<path fill="#999999" d="M107.799,64.142c0-0.875-0.504-1.355-1.428-1.355c-0.875,0-1.391,0.456-1.654,0.983
			c0,0.012-0.732,0-0.732-0.576c0-0.552,0.84-1.379,2.471-1.379c1.632,0,2.519,0.839,2.519,2.303v3.538
			c0,0.06-0.216,0.132-0.432,0.132c-0.42,0-0.72-0.228-0.731-0.936c-0.432,0.624-1.188,1.007-2.075,1.007
			c-1.235,0-1.967-0.66-1.967-1.643c0-1.331,1.271-1.907,3.874-1.955h0.156V64.142z M107.799,65.449v-0.444l-0.324,0.012
			c-1.679,0.06-2.542,0.372-2.542,1.151c0,0.516,0.407,0.839,1.091,0.839C107.055,67.008,107.799,66.361,107.799,65.449z"/>
		<path fill="#999999" d="M111.677,67.212c0,0.432-0.216,0.563-0.516,0.563h-0.132c-0.312,0-0.528-0.132-0.528-0.563v-7.592
			c0-0.036,0.192-0.132,0.432-0.132c0.36,0,0.756,0.192,0.756,1.019v2.339c0.456-0.647,1.127-1.031,2.015-1.031
			c1.548,0,2.699,1.187,2.699,3.022c0,1.811-1.14,3.046-2.735,3.046c-0.959,0-1.679-0.468-1.99-1.02V67.212z M111.677,65.209
			c0,0.971,0.815,1.691,1.774,1.691c1.08,0,1.8-0.828,1.8-2.051c0-1.199-0.744-2.051-1.775-2.051c-0.876,0-1.499,0.468-1.799,1.199
			V65.209z"/>
		<path fill="#999999" d="M117.688,67.212v-7.592c0-0.036,0.204-0.132,0.432-0.132c0.372,0,0.756,0.192,0.756,1.019v6.705
			c0,0.432-0.216,0.563-0.527,0.563h-0.12C117.917,67.776,117.688,67.644,117.688,67.212z"/>
		<path fill="#999999" d="M123.243,66.948c1.008,0,1.511-0.443,1.811-0.959c0.024-0.024,0.624,0.084,0.624,0.588
			s-0.888,1.307-2.459,1.307c-1.822,0-3.046-1.211-3.046-3.01c0-1.751,1.247-3.058,2.95-3.058c1.667,0,2.771,1.175,2.771,2.902
			v0.096c0,0.252-0.084,0.348-0.359,0.348h-4.246C121.372,66.217,122.151,66.948,123.243,66.948z M124.742,64.358
			c-0.06-0.996-0.672-1.643-1.631-1.643c-0.947,0-1.679,0.684-1.823,1.643H124.742z"/>
		<path fill="#999999" d="M132.375,61.815c1.522,0,2.23,1.043,2.23,2.471v2.926c0,0.432-0.228,0.563-0.527,0.563h-0.132
			c-0.312,0-0.528-0.132-0.528-0.563V64.43c0-0.971-0.491-1.571-1.331-1.571c-0.756,0-1.331,0.408-1.619,1.007v3.346
			c0,0.432-0.228,0.563-0.527,0.563h-0.132c-0.312,0-0.528-0.132-0.528-0.563v-5.181c0-0.036,0.192-0.132,0.432-0.132
			c0.348,0,0.708,0.18,0.744,0.936C130.852,62.235,131.499,61.815,132.375,61.815z"/>
		<path fill="#999999" d="M135.784,64.837c0-1.763,1.247-3.022,3.034-3.022c1.764,0,3.011,1.271,3.011,3.046
			c0,1.763-1.247,3.022-3.022,3.022C137.02,67.884,135.784,66.625,135.784,64.837z M140.726,64.862c0-1.2-0.804-2.075-1.919-2.075
			c-1.104,0-1.931,0.864-1.931,2.051c0,1.188,0.827,2.075,1.931,2.075S140.726,66.037,140.726,64.862z"/>
		<path fill="#999999" d="M143.955,67.416l-1.438-5.169c-0.024-0.072,0.359-0.348,0.707-0.348c0.252,0,0.528,0.144,0.624,0.635
			l0.899,4.042l1.104-3.49c0.084-0.288,0.288-0.419,0.731-0.419c0.432,0,0.636,0.132,0.72,0.419l1.067,3.466l0.888-4.018
			c0.084-0.492,0.371-0.635,0.611-0.635c0.348,0,0.695,0.288,0.684,0.348l-1.427,5.169c-0.072,0.288-0.288,0.384-0.72,0.384
			c-0.492,0-0.624-0.096-0.731-0.419l-1.116-3.49l-1.151,3.49c-0.107,0.312-0.252,0.419-0.719,0.419
			C144.255,67.8,144.039,67.704,143.955,67.416z"/>
	</g>
	<g>
		<path fill="#515252" d="M51.7,36.398c-1.161,0-1.97-0.621-1.97-1.539c0-0.621,0.54-1.025,0.567-0.999
			c0.351,0.405,0.837,0.675,1.539,0.675c1.161,0,2.051-0.945,2.105-2.105h0.783c0.54,0,0.81,0.297,0.81,0.837v16.006
			c0,0.567-0.27,0.837-0.81,0.837H54.48c-0.513,0-0.783-0.27-0.783-0.837V35.4C53.266,35.994,52.563,36.398,51.7,36.398z"/>
		<path fill="#515252" d="M69.868,34.347H60.07c-0.54,0-0.837-0.324-0.837-0.81v-0.135c0-0.513,0.297-0.864,0.837-0.864
			c0,0,10.986,0,10.851,0c0.837,0,1.053,0.351,1.053,0.81v0.162c0,0.27-0.162,0.648-0.486,1.269L63.66,49.463
			c-0.27,0.513-0.621,0.648-0.972,0.648c-0.621,0-1.08-0.621-0.999-0.756L69.868,34.347z"/>
		<path fill="#515252" d="M88.903,31.81c0-0.054,0.27-0.189,0.594-0.189c0.594,0,1.161,0.297,1.161,1.701v15.953
			c0,0.648-0.324,0.837-0.783,0.837h-0.189c-0.459,0-0.756-0.189-0.756-0.837v-1.403c-1.161,1.565-2.672,2.456-4.805,2.456
			c-3.401,0-6.073-2.645-6.073-6.721c0-4.049,2.618-6.775,6.181-6.775c2.294,0,3.941,1.08,4.67,2.267V31.81z M88.93,41.392
			c-0.81-1.862-2.294-3.023-4.562-3.023c-2.727,0-4.535,2.105-4.535,5.209c0,3.023,1.89,5.209,4.481,5.209
			c2.402,0,4.616-1.862,4.616-4.319V41.392z"/>
		<path fill="#515252" d="M102.673,41.878c0-2.213-1.296-3.428-3.617-3.428c-2.078,0-3.4,1.053-4.103,2.375
			c0,0.027-0.999-0.081-0.999-1.025c0-0.918,1.836-2.969,5.237-2.969c3.266,0,5.209,1.889,5.209,4.994v8.098
			c0,0.054-0.27,0.189-0.594,0.189c-0.594,0-1.106-0.297-1.106-1.701v-0.486c-0.999,1.485-2.754,2.375-4.805,2.375
			c-2.808,0-4.427-1.431-4.427-3.59c0-2.997,2.996-4.238,8.935-4.373h0.27V41.878z M102.673,44.901v-1.188l-0.756,0.027
			c-4.399,0.162-6.667,0.945-6.667,2.969c0,1.295,1.053,2.132,2.808,2.132C100.702,48.842,102.673,47.196,102.673,44.901z"/>
		<path fill="#515252" d="M109.856,54.862l2.16-5.507c-0.594,0-0.837-0.135-1.08-0.675l-4.696-11.121
			c-0.027-0.108,0.242-0.513,0.863-0.513s0.945,0.27,1.322,1.215l4.076,10.068l3.536-10.015c0.324-0.945,0.729-1.269,1.296-1.269
			c0.485,0,0.918,0.378,0.891,0.459l-6.208,16.654c-0.352,0.945-0.783,1.161-1.242,1.161
			C110.289,55.32,109.83,54.942,109.856,54.862z"/>
		<path fill="#515252" d="M119.415,47.708c0-0.729,0.891-0.999,0.944-0.945c0.864,1.188,2.268,2.079,4.4,2.079
			c2.132,0,3.32-0.864,3.32-2.16c0-1.539-1.351-1.862-3.779-2.375c-1.998-0.432-4.508-0.999-4.508-3.59
			c0-2.294,1.943-3.887,4.912-3.887c3.132,0,4.751,1.484,4.751,2.456c0,0.675-0.918,0.999-0.972,0.918
			c-0.729-1.107-2.024-1.89-3.779-1.89c-2.105,0-3.238,0.891-3.238,2.16c0,1.376,1.214,1.754,3.59,2.267
			c2.078,0.459,4.724,1.026,4.724,3.671c0,2.375-1.943,3.914-5.075,3.914C121.277,50.327,119.415,48.68,119.415,47.708z"/>
	</g>
	<g>
		<path fill="#6C6C6C" d="M73.469,94.186l-0.684,1.774c-0.156,0.432-0.42,0.563-0.684,0.563c-0.36,0-0.708-0.264-0.672-0.371
			l2.759-7.125c0.096-0.252,0.288-0.396,0.852-0.396c0.576,0,0.755,0.144,0.852,0.396l2.782,7.125
			c0.036,0.096-0.312,0.371-0.684,0.371c-0.276,0-0.563-0.132-0.731-0.575l-0.684-1.763H73.469z M76.275,93.189l-1.248-3.286
			l-1.259,3.286H76.275z"/>
		<path fill="#6C6C6C" d="M81.736,96.607c-1.523,0-2.219-1.031-2.219-2.471v-2.926c0-0.432,0.216-0.576,0.516-0.576h0.132
			c0.312,0,0.528,0.132,0.528,0.576v2.782c0,0.995,0.504,1.583,1.379,1.583c0.72,0,1.283-0.407,1.583-1.02v-3.346
			c0-0.432,0.216-0.576,0.516-0.576h0.132c0.312,0,0.528,0.132,0.528,0.576v5.169c0,0.036-0.192,0.132-0.419,0.132
			c-0.36,0-0.72-0.18-0.756-0.911C83.26,96.188,82.624,96.607,81.736,96.607z"/>
		<path fill="#6C6C6C" d="M90.244,90.347c0.192-0.312,0.384-0.456,0.684-0.456c0.444,0,0.648,0.479,0.612,0.503l-0.972,1.007
			c0.312,0.36,0.491,0.804,0.491,1.296c0,1.211-1.031,2.099-2.494,2.099c-0.072,0-0.144,0-0.216-0.012
			c-0.048,0.071-0.06,0.144-0.06,0.216c0,0.371,0.552,0.407,1.559,0.659c0.815,0.216,1.679,0.624,1.679,1.571
			c0,1.092-1.115,1.763-3.022,1.763c-1.943,0-2.842-0.516-2.842-1.595c0-0.84,0.792-1.403,1.847-1.583
			c-0.144-0.12-0.24-0.3-0.24-0.54c0-0.239,0.132-0.468,0.324-0.623c-0.923-0.3-1.511-1.02-1.511-1.919
			c0-1.212,1.043-2.183,2.47-2.183c0.516,0,0.984,0.132,1.379,0.348L90.244,90.347z M86.801,97.363c0,0.516,0.588,0.804,1.727,0.804
			c1.164,0,1.847-0.324,1.847-0.899c0-0.588-0.923-0.708-1.775-0.924C87.629,96.404,86.801,96.752,86.801,97.363z M89.908,92.71
			c0-0.768-0.552-1.308-1.367-1.308c-0.78,0-1.332,0.528-1.332,1.308s0.564,1.308,1.355,1.308S89.908,93.489,89.908,92.71z"/>
		<path fill="#6C6C6C" d="M94.876,96.607c-1.523,0-2.219-1.031-2.219-2.471v-2.926c0-0.432,0.216-0.576,0.516-0.576h0.132
			c0.312,0,0.528,0.132,0.528,0.576v2.782c0,0.995,0.503,1.583,1.379,1.583c0.72,0,1.283-0.407,1.583-1.02v-3.346
			c0-0.432,0.216-0.576,0.516-0.576h0.132c0.312,0,0.528,0.132,0.528,0.576v5.169c0,0.036-0.192,0.132-0.42,0.132
			c-0.36,0-0.72-0.18-0.756-0.911C96.399,96.188,95.764,96.607,94.876,96.607z"/>
		<path fill="#6C6C6C" d="M99.017,95.385c0-0.372,0.432-0.564,0.468-0.54c0.384,0.492,1.031,0.863,1.943,0.863
			c0.815,0,1.271-0.3,1.271-0.779c0-0.588-0.54-0.695-1.487-0.899c-0.852-0.18-2.027-0.443-2.027-1.667
			c0-1.079,0.899-1.811,2.303-1.811c1.476,0,2.219,0.624,2.219,1.164c0,0.371-0.455,0.587-0.479,0.552
			c-0.359-0.48-0.959-0.816-1.691-0.816c-0.815,0-1.247,0.312-1.247,0.792c0,0.527,0.504,0.647,1.439,0.852
			c0.888,0.191,2.123,0.456,2.123,1.703c0,1.104-0.912,1.811-2.399,1.811C99.845,96.607,99.017,95.937,99.017,95.385z"/>
		<path fill="#6C6C6C" d="M105.016,91.666c-0.371,0-0.516-0.155-0.516-0.443v-0.084c0-0.288,0.145-0.444,0.516-0.444h0.42v-0.887
			c0-0.408,0.204-0.564,0.528-0.564h0.119c0.312,0,0.517,0.12,0.517,0.564v0.887h1.307c0.372,0,0.504,0.144,0.504,0.432v0.084
			c0,0.3-0.144,0.455-0.516,0.455h-1.308v2.915c0,0.72,0.204,1.067,0.768,1.067c0.372,0,0.636-0.168,0.815-0.408
			c0.036-0.036,0.336,0.132,0.336,0.504c0,0.444-0.491,0.876-1.343,0.876c-1.188,0-1.728-0.66-1.728-1.907v-3.047H105.016z"/>
	</g>
</g>
</svg>
