<?xml version="1.0" encoding="utf-8"?>
<!-- Generator: Adobe Illustrator 15.1.0, SVG Export Plug-In . SVG Version: 6.00 Build 0)  -->
<!DOCTYPE svg PUBLIC "-//W3C//DTD SVG 1.1//EN" "http://www.w3.org/Graphics/SVG/1.1/DTD/svg11.dtd">
<svg version="1.1" xmlns="http://www.w3.org/2000/svg" xmlns:xlink="http://www.w3.org/1999/xlink" x="0px" y="0px" width="180px"
	 height="180px" viewBox="0 0 180 180" enable-background="new 0 0 180 180" xml:space="preserve">
<g id="Layer_1">
	
		<circle fill-rule="evenodd" clip-rule="evenodd" fill="#FFFFFF" stroke="#FA0E6A" stroke-width="6" stroke-miterlimit="10" cx="90" cy="90" r="86"/>
</g>
<g id="Layer_2">
	
		<radialGradient id="SVGID_1_" cx="90.4878" cy="114.3174" r="78.1926" gradientTransform="matrix(0.9957 0 0 0.0996 0.7204 75.2725)" gradientUnits="userSpaceOnUse">
		<stop  offset="0" style="stop-color:#231F20;stop-opacity:0.2"/>
		<stop  offset="1" style="stop-color:#231F20;stop-opacity:0"/>
	</radialGradient>
	<rect x="3.472" y="81.965" fill-rule="evenodd" clip-rule="evenodd" fill="url(#SVGID_1_)" width="173.055" height="14.833"/>
	<polygon fill-rule="evenodd" clip-rule="evenodd" fill="#CB3A7F" points="154,66 154,61 145,61 145,63 133,63 133,61 123,61 
		123,57 108,57 108,50 98,50 98,41 88,41 88,36 75,36 75,45 63,45 63,50 52,50 52,52.5 42,52.5 42,61 30,61 30,57 22,57 22,86 
		161,86 161,66 	"/>
	<g>
		
			<polyline fill="none" stroke="#A9D853" stroke-width="3" stroke-linecap="round" stroke-linejoin="round" stroke-miterlimit="10" points="
			47.5,107 41.5,113 38.5,110 		"/>
		
			<circle fill-rule="evenodd" clip-rule="evenodd" fill="none" stroke="#A9D852" stroke-width="3" stroke-linecap="round" stroke-linejoin="round" stroke-miterlimit="10" cx="43.25" cy="109.75" r="12.25"/>
	</g>
	<polygon fill-rule="evenodd" clip-rule="evenodd" fill="#FE317E" points="154.021,66 161,66 161,86 154,86 	"/>
</g>
<g id="Layer_3" display="none">
	
		<rect x="65.072" y="94.844" display="inline" fill-rule="evenodd" clip-rule="evenodd" fill="none" width="96.619" height="35.656"/>
	<text transform="matrix(1 0 0 1 65.0728 113.3467)" display="inline"><tspan x="0" y="0" fill="#515354" font-family="'Omnes-Medium'" font-size="18">$</tspan><tspan x="10.35" y="5.5" fill="#515354" font-family="'Omnes'" font-size="27">22</tspan><tspan x="38.429" y="5.5" fill="#515354" font-family="'Omnes'" font-size="27" letter-spacing="-2">.</tspan><tspan x="41.642" y="5.5" fill="#515354" font-family="'Omnes'" font-size="27">0</tspan><tspan x="57.68" y="5.5" fill="#515354" font-family="'Omnes'" font-size="27">0</tspan></text>
	
		<rect x="75.745" y="125.162" display="inline" fill-rule="evenodd" clip-rule="evenodd" fill="none" width="81.755" height="31.838"/>
	<text transform="matrix(1 0 0 1 75.7456 135.8896)" display="inline"><tspan x="0" y="0" fill="#999999" font-family="'Omnes-Medium'" font-size="12">L</tspan><tspan x="6.036" y="0" fill="#999999" font-family="'Omnes-Medium'" font-size="12">oo</tspan><tspan x="19.908" y="0" fill="#999999" font-family="'Omnes-Medium'" font-size="12">k</tspan><tspan x="25.595" y="0" fill="#999999" font-family="'Omnes-Medium'" font-size="12">ing</tspan><tspan x="41.314" y="0" fill="#999999" font-family="'Omnes-Medium'" font-size="12" letter-spacing="1"> </tspan><tspan x="44.554" y="0" fill="#999999" font-family="'Omnes-Medium'" font-size="12">good  </tspan><tspan x="0" y="13.5" fill="#999999" font-family="'Omnes-Medium'" font-size="12">I</tspan><tspan x="2.988" y="13.5" fill="#999999" font-family="'Omnes-Medium'" font-size="12">n </tspan><tspan x="12" y="13.5" fill="#999999" font-family="'Omnes-Medium'" font-size="12">c</tspan><tspan x="18.492" y="13.5" fill="#999999" font-family="'Omnes-Medium'" font-size="12">r</tspan><tspan x="22.835" y="13.5" fill="#999999" font-family="'Omnes-Medium'" font-size="12">ed</tspan><tspan x="36.575" y="13.5" fill="#999999" font-family="'Omnes-Medium'" font-size="12">i</tspan><tspan x="39.334" y="13.5" fill="#999999" font-family="'Omnes-Medium'" font-size="12">t</tspan></text>
</g>
<g id="Layer_3_copy">
	<g>
		<path fill="#515354" d="M65.703,111.186c0-0.63,0.756-1.025,0.81-0.954c0.54,0.793,1.53,1.477,2.773,1.675v-3.799
			c-1.603-0.396-3.295-1.099-3.295-3.241c0-1.692,1.332-2.953,3.259-3.241v-0.882c0-0.612,0.234-0.847,0.72-0.847h0.126
			c0.504,0,0.72,0.234,0.72,0.847v0.846c2.053,0.181,3.241,1.207,3.241,2.017c0,0.648-0.792,1.045-0.829,0.99
			c-0.522-0.738-1.44-1.314-2.502-1.477v3.655c1.71,0.414,3.565,1.116,3.565,3.331c0,1.783-1.386,3.098-3.511,3.35v0.882
			c0,0.612-0.234,0.864-0.738,0.864h-0.108c-0.504,0-0.72-0.234-0.72-0.864v-0.882C67.035,113.221,65.703,112.068,65.703,111.186z
			 M67.755,104.83c0,0.9,0.612,1.297,1.584,1.603v-3.277C68.386,103.372,67.755,104.002,67.755,104.83z M72.473,110.178
			c0-0.973-0.774-1.404-1.801-1.729v3.457C71.771,111.727,72.473,111.06,72.473,110.178z"/>
		<path fill="#515354" d="M87.867,117.173c0.567,0,0.864,0.271,0.864,0.756v0.135c0,0.514-0.297,0.783-0.864,0.783H77.717
			c-0.729,0-1.161-0.405-1.161-1.106v-0.54c0-3.779,2.672-5.345,5.398-6.722c2.375-1.214,4.616-2.213,4.616-4.399
			c0-2.078-1.539-3.347-4.049-3.347c-2.834,0-4.076,1.673-4.643,3.59c-0.027,0.107-1.242,0.081-1.242-0.972
			c0-1.512,2.024-4.319,6.019-4.319c3.536,0,5.723,1.943,5.723,5.075c0,3.05-2.537,4.346-5.264,5.668
			c-2.537,1.242-4.778,2.43-4.778,5.102v0.297H87.867z"/>
		<path fill="#515354" d="M101.906,117.173c0.566,0,0.863,0.271,0.863,0.756v0.135c0,0.514-0.297,0.783-0.863,0.783H91.757
			c-0.729,0-1.161-0.405-1.161-1.106v-0.54c0-3.779,2.672-5.345,5.399-6.722c2.375-1.214,4.615-2.213,4.615-4.399
			c0-2.078-1.538-3.347-4.049-3.347c-2.834,0-4.076,1.673-4.643,3.59c-0.027,0.107-1.242,0.081-1.242-0.972
			c0-1.512,2.024-4.319,6.019-4.319c3.536,0,5.723,1.943,5.723,5.075c0,3.05-2.537,4.346-5.264,5.668
			c-2.537,1.242-4.777,2.43-4.777,5.102v0.297H101.906z"/>
		<path fill="#515354" d="M104.986,117.821v-0.271c0-0.756,0.432-1.215,1.188-1.215h0.271c0.782,0,1.215,0.459,1.215,1.215v0.271
			c0,0.756-0.433,1.188-1.215,1.188h-0.271C105.418,119.009,104.986,118.577,104.986,117.821z"/>
		<path fill="#515354" d="M108.227,111.046v-1.809c0-5.048,2.672-8.179,6.964-8.179c4.319,0,6.991,3.104,6.991,8.125v1.809
			c0,5.021-2.699,8.179-7.018,8.179C110.845,119.171,108.227,116.094,108.227,111.046z M120.347,110.992v-1.701
			c0-4.156-1.944-6.667-5.183-6.667c-3.213,0-5.103,2.456-5.103,6.613v1.7c0,4.157,1.917,6.641,5.129,6.641
			C118.457,117.578,120.347,115.148,120.347,110.992z"/>
		<path fill="#515354" d="M124.265,111.046v-1.809c0-5.048,2.672-8.179,6.964-8.179c4.319,0,6.991,3.104,6.991,8.125v1.809
			c0,5.021-2.699,8.179-7.018,8.179C126.883,119.171,124.265,116.094,124.265,111.046z M136.385,110.992v-1.701
			c0-4.156-1.944-6.667-5.183-6.667c-3.213,0-5.103,2.456-5.103,6.613v1.7c0,4.157,1.917,6.641,5.129,6.641
			C134.495,117.578,136.385,115.148,136.385,110.992z"/>
	</g>
	<g>
		<path fill="#999999" d="M76.573,135.206v-6.561c0-0.384,0.18-0.563,0.516-0.563h0.18c0.36,0,0.54,0.18,0.54,0.563v6.129h3.37
			c0.372,0,0.576,0.18,0.576,0.527v0.048c0,0.348-0.204,0.54-0.576,0.54h-3.946C76.837,135.89,76.573,135.626,76.573,135.206z"/>
		<path fill="#999999" d="M82.166,132.999c0-1.763,1.248-3.022,3.034-3.022c1.763,0,3.01,1.271,3.01,3.047
			c0,1.763-1.247,3.022-3.022,3.022C83.401,136.046,82.166,134.786,82.166,132.999z M87.107,133.023
			c0-1.199-0.804-2.075-1.919-2.075c-1.104,0-1.931,0.863-1.931,2.051s0.828,2.075,1.931,2.075
			C86.291,135.074,87.107,134.198,87.107,133.023z"/>
		<path fill="#999999" d="M89.101,132.999c0-1.763,1.248-3.022,3.035-3.022c1.763,0,3.01,1.271,3.01,3.047
			c0,1.763-1.247,3.022-3.022,3.022C90.336,136.046,89.101,134.786,89.101,132.999z M94.042,133.023
			c0-1.199-0.803-2.075-1.919-2.075c-1.104,0-1.931,0.863-1.931,2.051s0.827,2.075,1.931,2.075S94.042,134.198,94.042,133.023z"/>
		<path fill="#999999" d="M97.572,135.374c0,0.432-0.228,0.563-0.527,0.563h-0.132c-0.312,0-0.528-0.132-0.528-0.563v-7.592
			c0-0.036,0.192-0.132,0.432-0.132c0.36,0,0.756,0.191,0.756,1.02v4.029l2.003-2.23c0.24-0.3,0.491-0.408,0.708-0.408
			c0.419,0,0.659,0.408,0.611,0.468l-2.099,2.315l2.423,2.626c0.035,0.061-0.229,0.479-0.648,0.479
			c-0.228,0-0.455-0.096-0.707-0.407l-2.291-2.471V135.374z"/>
		<path fill="#999999" d="M102.013,128.226c0-0.432,0.264-0.671,0.72-0.671c0.443,0,0.695,0.239,0.695,0.671s-0.252,0.66-0.708,0.66
			C102.276,128.886,102.013,128.646,102.013,128.226z M102.12,135.374v-4.737c0-0.432,0.229-0.576,0.54-0.576h0.12
			c0.312,0,0.527,0.132,0.527,0.576v4.737c0,0.432-0.216,0.563-0.527,0.563h-0.12C102.349,135.938,102.12,135.806,102.12,135.374z"
			/>
		<path fill="#999999" d="M108.046,129.977c1.522,0,2.23,1.044,2.23,2.471v2.927c0,0.432-0.228,0.563-0.527,0.563h-0.132
			c-0.312,0-0.528-0.132-0.528-0.563v-2.782c0-0.972-0.491-1.571-1.331-1.571c-0.756,0-1.331,0.407-1.619,1.007v3.347
			c0,0.432-0.228,0.563-0.527,0.563h-0.132c-0.312,0-0.528-0.132-0.528-0.563v-5.182c0-0.035,0.192-0.132,0.432-0.132
			c0.348,0,0.708,0.181,0.744,0.936C106.522,130.396,107.17,129.977,108.046,129.977z"/>
		<path fill="#999999" d="M115.629,129.773c0.191-0.312,0.384-0.456,0.684-0.456c0.443,0,0.647,0.479,0.611,0.504l-0.972,1.007
			c0.312,0.36,0.492,0.804,0.492,1.296c0,1.211-1.031,2.099-2.495,2.099c-0.071,0-0.144,0-0.216-0.012
			c-0.048,0.071-0.06,0.144-0.06,0.216c0,0.371,0.552,0.407,1.56,0.659c0.815,0.216,1.679,0.624,1.679,1.571
			c0,1.092-1.115,1.763-3.022,1.763c-1.942,0-2.843-0.516-2.843-1.595c0-0.84,0.792-1.403,1.848-1.583
			c-0.145-0.12-0.24-0.3-0.24-0.54c0-0.239,0.132-0.468,0.324-0.623c-0.924-0.3-1.512-1.02-1.512-1.919
			c0-1.212,1.044-2.184,2.471-2.184c0.516,0,0.983,0.132,1.38,0.348L115.629,129.773z M112.187,136.789
			c0,0.516,0.588,0.804,1.728,0.804c1.163,0,1.847-0.324,1.847-0.899c0-0.588-0.924-0.708-1.775-0.924
			C113.015,135.83,112.187,136.178,112.187,136.789z M115.293,132.136c0-0.768-0.552-1.308-1.367-1.308
			c-0.779,0-1.331,0.528-1.331,1.308s0.563,1.308,1.354,1.308C114.741,133.443,115.293,132.915,115.293,132.136z"/>
		<path fill="#999999" d="M124.857,129.773c0.191-0.312,0.384-0.456,0.684-0.456c0.443,0,0.647,0.479,0.611,0.504l-0.972,1.007
			c0.312,0.36,0.492,0.804,0.492,1.296c0,1.211-1.031,2.099-2.495,2.099c-0.071,0-0.144,0-0.216-0.012
			c-0.048,0.071-0.06,0.144-0.06,0.216c0,0.371,0.552,0.407,1.56,0.659c0.815,0.216,1.679,0.624,1.679,1.571
			c0,1.092-1.115,1.763-3.022,1.763c-1.942,0-2.843-0.516-2.843-1.595c0-0.84,0.792-1.403,1.848-1.583
			c-0.145-0.12-0.24-0.3-0.24-0.54c0-0.239,0.132-0.468,0.324-0.623c-0.924-0.3-1.512-1.02-1.512-1.919
			c0-1.212,1.044-2.184,2.471-2.184c0.516,0,0.983,0.132,1.38,0.348L124.857,129.773z M121.415,136.789
			c0,0.516,0.588,0.804,1.728,0.804c1.163,0,1.847-0.324,1.847-0.899c0-0.588-0.924-0.708-1.775-0.924
			C122.243,135.83,121.415,136.178,121.415,136.789z M124.521,132.136c0-0.768-0.552-1.308-1.367-1.308
			c-0.779,0-1.331,0.528-1.331,1.308s0.563,1.308,1.354,1.308C123.97,133.443,124.521,132.915,124.521,132.136z"/>
		<path fill="#999999" d="M126.672,132.999c0-1.763,1.247-3.022,3.034-3.022c1.763,0,3.011,1.271,3.011,3.047
			c0,1.763-1.248,3.022-3.022,3.022C127.907,136.046,126.672,134.786,126.672,132.999z M131.613,133.023
			c0-1.199-0.804-2.075-1.919-2.075c-1.104,0-1.931,0.863-1.931,2.051s0.827,2.075,1.931,2.075S131.613,134.198,131.613,133.023z"/>
		<path fill="#999999" d="M133.608,132.999c0-1.763,1.247-3.022,3.034-3.022c1.764,0,3.011,1.271,3.011,3.047
			c0,1.763-1.247,3.022-3.022,3.022C134.844,136.046,133.608,134.786,133.608,132.999z M138.55,133.023
			c0-1.199-0.804-2.075-1.919-2.075c-1.104,0-1.931,0.863-1.931,2.051s0.827,2.075,1.931,2.075S138.55,134.198,138.55,133.023z"/>
		<path fill="#999999" d="M145.259,127.782c0-0.036,0.203-0.132,0.432-0.132c0.371,0,0.755,0.191,0.755,1.02v6.704
			c0,0.432-0.216,0.563-0.527,0.563h-0.12c-0.312,0-0.527-0.132-0.527-0.563v-0.444c-0.444,0.696-1.115,1.116-2.027,1.116
			c-1.547,0-2.698-1.212-2.698-3.034c0-1.823,1.14-3.035,2.734-3.035c0.936,0,1.644,0.432,1.979,0.948V127.782z M145.271,132.147
			c-0.3-0.731-0.888-1.188-1.775-1.188c-1.079,0-1.799,0.816-1.799,2.052c0,1.199,0.743,2.051,1.775,2.051
			c0.959,0,1.799-0.708,1.799-1.691V132.147z"/>
		<path fill="#999999" d="M76.681,148.874v-6.729c0-0.372,0.18-0.563,0.528-0.563h0.168c0.359,0,0.54,0.191,0.54,0.563v6.729
			c0,0.372-0.18,0.563-0.54,0.563h-0.168C76.861,149.438,76.681,149.246,76.681,148.874z"/>
		<path fill="#999999" d="M82.559,143.477c1.523,0,2.231,1.044,2.231,2.471v2.927c0,0.432-0.228,0.563-0.528,0.563H84.13
			c-0.312,0-0.528-0.132-0.528-0.563v-2.782c0-0.972-0.492-1.571-1.331-1.571c-0.756,0-1.331,0.407-1.619,1.007v3.347
			c0,0.432-0.228,0.563-0.528,0.563h-0.132c-0.312,0-0.528-0.132-0.528-0.563v-5.182c0-0.035,0.192-0.132,0.432-0.132
			c0.348,0,0.708,0.181,0.743,0.936C81.036,143.896,81.684,143.477,82.559,143.477z"/>
		<path fill="#999999" d="M88.129,146.499c0-1.751,1.271-3.022,2.999-3.022c1.715,0,2.471,1.056,2.471,1.596
			c0,0.491-0.672,0.588-0.708,0.527c-0.264-0.636-0.756-1.127-1.739-1.127c-1.079,0-1.895,0.852-1.895,2.026
			c0,1.188,0.804,2.051,1.895,2.051c0.972,0,1.476-0.491,1.739-1.127c0.036-0.061,0.708,0.023,0.708,0.54
			c0,0.527-0.768,1.583-2.471,1.583C89.389,149.546,88.129,148.274,88.129,146.499z"/>
		<path fill="#999999" d="M97.607,143.477c0.6,0,0.947,0.288,0.947,0.768c0,0.456-0.336,0.636-0.359,0.612
			c-0.18-0.145-0.408-0.252-0.731-0.252c-0.936,0-1.308,0.911-1.308,2.242v2.027c0,0.432-0.228,0.563-0.527,0.563h-0.132
			c-0.312,0-0.528-0.132-0.528-0.563v-5.182c0-0.035,0.192-0.132,0.432-0.132c0.36,0,0.731,0.192,0.744,1.008
			C96.396,143.86,96.876,143.477,97.607,143.477z"/>
		<path fill="#999999" d="M102.035,148.61c1.008,0,1.511-0.444,1.811-0.96c0.024-0.023,0.624,0.084,0.624,0.588
			s-0.888,1.308-2.459,1.308c-1.822,0-3.046-1.212-3.046-3.011c0-1.751,1.247-3.059,2.95-3.059c1.667,0,2.771,1.176,2.771,2.902
			v0.097c0,0.252-0.084,0.348-0.359,0.348h-4.246C100.164,147.879,100.943,148.61,102.035,148.61z M103.534,146.02
			c-0.06-0.995-0.672-1.644-1.631-1.644c-0.947,0-1.679,0.684-1.823,1.644H103.534z"/>
		<path fill="#999999" d="M110.278,141.282c0-0.036,0.203-0.132,0.432-0.132c0.371,0,0.755,0.191,0.755,1.02v6.704
			c0,0.432-0.216,0.563-0.527,0.563h-0.12c-0.312,0-0.527-0.132-0.527-0.563v-0.444c-0.444,0.696-1.115,1.116-2.027,1.116
			c-1.547,0-2.698-1.212-2.698-3.034c0-1.823,1.14-3.035,2.734-3.035c0.936,0,1.644,0.432,1.979,0.948V141.282z M110.29,145.647
			c-0.3-0.731-0.888-1.188-1.775-1.188c-1.079,0-1.799,0.816-1.799,2.052c0,1.199,0.743,2.051,1.775,2.051
			c0.959,0,1.799-0.708,1.799-1.691V145.647z"/>
		<path fill="#999999" d="M112.992,141.726c0-0.432,0.264-0.671,0.72-0.671c0.443,0,0.695,0.239,0.695,0.671s-0.252,0.66-0.708,0.66
			C113.256,142.386,112.992,142.146,112.992,141.726z M113.1,148.874v-4.737c0-0.432,0.229-0.576,0.54-0.576h0.12
			c0.312,0,0.527,0.132,0.527,0.576v4.737c0,0.432-0.216,0.563-0.527,0.563h-0.12C113.328,149.438,113.1,149.306,113.1,148.874z"/>
		<path fill="#999999" d="M115.823,144.592c-0.371,0-0.516-0.155-0.516-0.443v-0.084c0-0.288,0.145-0.443,0.516-0.443h0.42v-0.888
			c0-0.408,0.204-0.563,0.528-0.563h0.119c0.312,0,0.517,0.119,0.517,0.563v0.888h1.307c0.372,0,0.504,0.144,0.504,0.432v0.084
			c0,0.3-0.144,0.455-0.516,0.455h-1.308v2.915c0,0.72,0.204,1.067,0.768,1.067c0.372,0,0.636-0.168,0.815-0.408
			c0.036-0.036,0.336,0.132,0.336,0.504c0,0.444-0.491,0.876-1.343,0.876c-1.188,0-1.728-0.66-1.728-1.907v-3.047H115.823z"/>
	</g>
</g>
</svg>
