<?xml version="1.0" encoding="utf-8"?>
<!-- Generator: Adobe Illustrator 15.1.0, SVG Export Plug-In . SVG Version: 6.00 Build 0)  -->
<!DOCTYPE svg PUBLIC "-//W3C//DTD SVG 1.1//EN" "http://www.w3.org/Graphics/SVG/1.1/DTD/svg11.dtd">
<svg version="1.1" xmlns="http://www.w3.org/2000/svg" xmlns:xlink="http://www.w3.org/1999/xlink" x="0px" y="0px" width="180px"
	 height="180px" viewBox="0 0 180 180" enable-background="new 0 0 180 180" xml:space="preserve">
<g id="Layer_1">
	
		<circle fill-rule="evenodd" clip-rule="evenodd" fill="#FFFFFF" stroke="#FA0E6A" stroke-width="6" stroke-miterlimit="10" cx="90" cy="90" r="86"/>
</g>
<g id="Layer_2">
	
		<line fill-rule="evenodd" clip-rule="evenodd" fill="none" stroke="#E6E7E8" stroke-linecap="round" stroke-linejoin="round" stroke-miterlimit="10" x1="90" y1="56" x2="90" y2="149.479"/>
	<g>
		<path fill="#A9D853" d="M118.824,70.447l-3.643-4.22c-0.299-0.345-0.787-0.49-1.225-0.363c-0.443,0.127-0.774,0.505-0.844,0.961
			l-0.156,1.04l-4.927-2.054c-0.593-0.248-1.306,0.051-1.55,0.638c-0.252,0.603,0.034,1.297,0.637,1.549l4.928,2.054l-0.628,0.844
			c-0.276,0.37-0.312,0.871-0.091,1.274c0.129,0.235,0.336,0.423,0.584,0.526c0.145,0.061,0.299,0.091,0.457,0.091
			c0.025,0,0.053-0.001,0.08-0.002l5.562-0.383c0.45-0.031,0.839-0.309,1.013-0.726S119.119,70.789,118.824,70.447z"/>
		
			<circle fill-rule="evenodd" clip-rule="evenodd" fill="none" stroke="#A9D852" stroke-width="3" stroke-linecap="round" stroke-linejoin="round" stroke-miterlimit="10" cx="112.75" cy="69.254" r="12.25"/>
	</g>
	<g>
		<path fill="#CC0000" d="M72.388,65.804l-5.56-0.407c-0.455-0.034-0.903,0.21-1.123,0.608c-0.223,0.404-0.19,0.904,0.083,1.276
			l0.625,0.847l-4.936,2.031c-0.595,0.244-0.887,0.959-0.645,1.547c0.248,0.604,0.942,0.893,1.546,0.645l4.937-2.032l0.153,1.041
			c0.066,0.457,0.396,0.836,0.837,0.965c0.257,0.076,0.536,0.062,0.785-0.04c0.146-0.06,0.276-0.147,0.387-0.259
			c0.019-0.019,0.038-0.038,0.055-0.059l3.662-4.203c0.297-0.34,0.374-0.812,0.202-1.229S72.838,65.837,72.388,65.804z"/>
		
			<circle fill-rule="evenodd" clip-rule="evenodd" fill="none" stroke="#CC0000" stroke-width="3" stroke-linecap="round" stroke-linejoin="round" stroke-miterlimit="10" cx="67.25" cy="69.254" r="12.25"/>
	</g>
</g>
<g id="Layer_3" display="none">
	<rect x="24.33" y="84.381" display="inline" fill-rule="evenodd" clip-rule="evenodd" fill="none" width="56.67" height="35.619"/>
	<text transform="matrix(1 0 0 1 51.5161 108.3848)" display="inline"><tspan x="0" y="0" fill="#515455" font-family="'Omnes'" font-size="27">9</tspan><tspan x="16.2" y="-5.5" fill="#515455" font-family="'Omnes-Semibold'" font-size="18">%</tspan></text>
	<rect x="27" y="114.5" display="inline" fill-rule="evenodd" clip-rule="evenodd" fill="none" width="54.195" height="31.804"/>
	<text transform="matrix(1 0 0 1 35.2954 125.2275)" display="inline"><tspan x="0" y="0" fill="#999999" font-family="'Omnes-Medium'" font-size="12">Inc</tspan><tspan x="16.392" y="0" fill="#999999" font-family="'Omnes-Medium'" font-size="12">r</tspan><tspan x="20.736" y="0" fill="#999999" font-family="'Omnes-Medium'" font-size="12">ease </tspan><tspan x="-3.264" y="13.5" fill="#999999" font-family="'Omnes-Medium'" font-size="12">last </tspan><tspan x="18.432" y="13.5" fill="#999999" font-family="'Omnes-Medium'" font-size="12">w</tspan><tspan x="27.012" y="13.5" fill="#999999" font-family="'Omnes-Medium'" font-size="12">eek</tspan></text>
	
		<rect x="97.459" y="84.188" display="inline" fill-rule="evenodd" clip-rule="evenodd" fill="none" width="58.541" height="35.619"/>
	<text transform="matrix(1 0 0 1 97.459 108.1914)" display="inline"><tspan x="0" y="0" fill="#515354" font-family="'Omnes'" font-size="27">1</tspan><tspan x="8.559" y="0" fill="#515354" font-family="'Omnes'" font-size="27">5</tspan><tspan x="23.624" y="-5.5" fill="#515354" font-family="'Omnes-Semibold'" font-size="18">%</tspan></text>
	
		<rect x="98.573" y="114.5" display="inline" fill-rule="evenodd" clip-rule="evenodd" fill="none" width="60.427" height="31.804"/>
	<text transform="matrix(1 0 0 1 98.5732 125.2275)" display="inline"><tspan x="0" y="0" fill="#999999" font-family="'Omnes-Medium'" font-size="12">Dec</tspan><tspan x="21.156" y="0" fill="#999999" font-family="'Omnes-Medium'" font-size="12">r</tspan><tspan x="25.56" y="0" fill="#999999" font-family="'Omnes-Medium'" font-size="12">ease  </tspan><tspan x="0" y="13.5" fill="#999999" font-family="'Omnes-Medium'" font-size="12">this </tspan><tspan x="22.15" y="13.5" fill="#999999" font-family="'Omnes-Medium'" font-size="12">w</tspan><tspan x="30.73" y="13.5" fill="#999999" font-family="'Omnes-Medium'" font-size="12">eek</tspan></text>
	<rect x="45.005" y="26.5" display="inline" fill-rule="evenodd" clip-rule="evenodd" fill="none" width="89.989" height="19.706"/>
	<text transform="matrix(1 0 0 1 46.5215 42.5918)" display="inline"><tspan x="0" y="0" fill="#6C6C6C" font-family="'Omnes-Medium'" font-size="18" letter-spacing="-1">Y</tspan><tspan x="8.964" y="0" fill="#6C6C6C" font-family="'Omnes-Medium'" font-size="18">our usa</tspan><tspan x="68.165" y="0" fill="#6C6C6C" font-family="'Omnes-Medium'" font-size="18">g</tspan><tspan x="77.236" y="0" fill="#6C6C6C" font-family="'Omnes-Medium'" font-size="18">e</tspan></text>
</g>
<g id="Layer_3_copy">
	<g>
		<path fill="#515455" d="M58.561,102.122c-3.617,0-5.965-2.078-5.965-5.29v-0.135c0-3.348,2.591-6.101,6.127-6.101
			c4.265,0,6.802,2.969,6.802,7.963v1.971c0,5.425-2.483,8.179-7.072,8.179c-3.509,0-5.264-1.782-5.264-2.861
			c0-0.648,0.945-1.08,0.999-0.999c0.917,1.377,2.24,2.295,4.265,2.295c3.509,0,5.264-2.052,5.264-6.506v-0.594
			C62.529,101.178,60.586,102.122,58.561,102.122z M58.831,92.162c-2.618,0-4.454,1.943-4.454,4.373v0.162
			c0,2.483,1.539,3.887,4.346,3.887c1.971,0,3.914-1.08,4.994-2.43C63.582,94.43,61.881,92.162,58.831,92.162z"/>
		<path fill="#515455" d="M68.04,93.99v-0.145c0-1.638,1.224-2.79,2.971-2.79s2.935,1.134,2.935,2.772v0.144
			c0,1.639-1.225,2.791-2.953,2.791C69.246,96.763,68.04,95.629,68.04,93.99z M68.994,102.2c0-0.306,0.126-0.54,0.486-0.918
			l9.057-10.263c0.108-0.108,1.134,0.216,1.134,0.864c0,0.252-0.126,0.558-0.468,0.936l-9.075,10.264
			C70.039,103.19,68.994,102.831,68.994,102.2z M72.199,94.044v-0.27c0-0.829-0.522-1.333-1.207-1.333
			c-0.702,0-1.188,0.486-1.188,1.333v0.27c0,0.828,0.504,1.333,1.206,1.333C71.695,95.377,72.199,94.872,72.199,94.044z
			 M74.774,100.274v-0.145c0-1.639,1.224-2.791,2.971-2.791c1.729,0,2.935,1.135,2.935,2.773v0.144c0,1.639-1.225,2.791-2.953,2.791
			C75.98,103.047,74.774,101.912,74.774,100.274z M78.933,100.328v-0.271c0-0.828-0.522-1.351-1.207-1.351
			c-0.702,0-1.188,0.505-1.188,1.351v0.271c0,0.811,0.504,1.314,1.206,1.314C78.411,101.643,78.933,101.156,78.933,100.328z"/>
	</g>
	<g>
		<path fill="#999999" d="M36.231,124.712v-6.729c0-0.372,0.18-0.563,0.528-0.563h0.168c0.359,0,0.54,0.191,0.54,0.563v6.729
			c0,0.372-0.18,0.563-0.54,0.563h-0.168C36.411,125.275,36.231,125.084,36.231,124.712z"/>
		<path fill="#999999" d="M42.349,119.314c1.523,0,2.231,1.044,2.231,2.471v2.927c0,0.432-0.228,0.563-0.528,0.563H43.92
			c-0.312,0-0.528-0.132-0.528-0.563v-2.782c0-0.972-0.492-1.571-1.331-1.571c-0.756,0-1.331,0.407-1.619,1.007v3.347
			c0,0.432-0.228,0.563-0.528,0.563h-0.132c-0.312,0-0.528-0.132-0.528-0.563v-5.182c0-0.035,0.192-0.132,0.432-0.132
			c0.348,0,0.708,0.181,0.743,0.936C40.826,119.734,41.474,119.314,42.349,119.314z"/>
		<path fill="#999999" d="M45.759,122.337c0-1.751,1.271-3.022,2.999-3.022c1.715,0,2.471,1.056,2.471,1.596
			c0,0.491-0.672,0.588-0.708,0.527c-0.264-0.636-0.755-1.127-1.739-1.127c-1.08,0-1.895,0.852-1.895,2.026
			c0,1.188,0.804,2.051,1.895,2.051c0.971,0,1.475-0.491,1.739-1.127c0.036-0.061,0.708,0.023,0.708,0.54
			c0,0.527-0.768,1.583-2.471,1.583C47.019,125.384,45.759,124.112,45.759,122.337z"/>
		<path fill="#999999" d="M55.057,119.314c0.6,0,0.948,0.288,0.948,0.768c0,0.456-0.336,0.636-0.36,0.612
			c-0.18-0.145-0.408-0.252-0.732-0.252c-0.936,0-1.307,0.911-1.307,2.242v2.027c0,0.432-0.228,0.563-0.528,0.563h-0.132
			c-0.312,0-0.528-0.132-0.528-0.563v-5.182c0-0.035,0.192-0.132,0.432-0.132c0.359,0,0.731,0.192,0.743,1.008
			C53.846,119.698,54.326,119.314,55.057,119.314z"/>
		<path fill="#999999" d="M59.485,124.448c1.007,0,1.511-0.444,1.811-0.96c0.024-0.023,0.624,0.084,0.624,0.588
			s-0.887,1.308-2.458,1.308c-1.823,0-3.046-1.212-3.046-3.011c0-1.751,1.247-3.059,2.95-3.059c1.667,0,2.771,1.176,2.771,2.902
			v0.097c0,0.252-0.084,0.348-0.36,0.348H57.53C57.614,123.717,58.394,124.448,59.485,124.448z M60.984,121.857
			c-0.06-0.995-0.671-1.644-1.631-1.644c-0.948,0-1.679,0.684-1.823,1.644H60.984z"/>
		<path fill="#999999" d="M67.057,121.642c0-0.876-0.504-1.355-1.427-1.355c-0.875,0-1.392,0.456-1.655,0.983
			c0,0.012-0.731,0-0.731-0.575c0-0.552,0.839-1.38,2.471-1.38c1.631,0,2.519,0.84,2.519,2.303v3.538
			c0,0.061-0.216,0.132-0.432,0.132c-0.419,0-0.719-0.228-0.731-0.936c-0.432,0.624-1.188,1.008-2.075,1.008
			c-1.235,0-1.967-0.659-1.967-1.643c0-1.332,1.271-1.907,3.874-1.955h0.156V121.642z M67.057,122.949v-0.444l-0.324,0.012
			c-1.679,0.061-2.542,0.372-2.542,1.151c0,0.517,0.408,0.84,1.091,0.84C66.313,124.508,67.057,123.86,67.057,122.949z"/>
		<path fill="#999999" d="M69.339,124.148c0-0.372,0.432-0.564,0.468-0.54c0.384,0.492,1.031,0.863,1.943,0.863
			c0.815,0,1.271-0.3,1.271-0.779c0-0.588-0.54-0.695-1.487-0.899c-0.852-0.18-2.027-0.443-2.027-1.667
			c0-1.079,0.899-1.812,2.303-1.812c1.475,0,2.219,0.624,2.219,1.164c0,0.371-0.456,0.587-0.48,0.552
			c-0.36-0.48-0.959-0.816-1.691-0.816c-0.815,0-1.248,0.312-1.248,0.792c0,0.527,0.504,0.647,1.439,0.852
			c0.887,0.191,2.123,0.456,2.123,1.703c0,1.104-0.911,1.811-2.398,1.811C70.166,125.371,69.339,124.7,69.339,124.148z"/>
		<path fill="#999999" d="M78.169,124.448c1.007,0,1.511-0.444,1.811-0.96c0.024-0.023,0.624,0.084,0.624,0.588
			s-0.887,1.308-2.458,1.308c-1.823,0-3.046-1.212-3.046-3.011c0-1.751,1.247-3.059,2.95-3.059c1.667,0,2.771,1.176,2.771,2.902
			v0.097c0,0.252-0.084,0.348-0.36,0.348h-4.246C76.298,123.717,77.078,124.448,78.169,124.448z M79.668,121.857
			c-0.06-0.995-0.671-1.644-1.631-1.644c-0.948,0-1.679,0.684-1.823,1.644H79.668z"/>
		<path fill="#999999" d="M32.812,138.212v-7.592c0-0.036,0.204-0.132,0.432-0.132c0.372,0,0.755,0.191,0.755,1.02v6.704
			c0,0.432-0.216,0.563-0.528,0.563h-0.12C33.039,138.775,32.812,138.644,32.812,138.212z"/>
		<path fill="#999999" d="M39.337,135.142c0-0.876-0.504-1.355-1.427-1.355c-0.875,0-1.392,0.456-1.655,0.983
			c0,0.012-0.731,0-0.731-0.575c0-0.552,0.839-1.38,2.471-1.38c1.631,0,2.519,0.84,2.519,2.303v3.538
			c0,0.061-0.216,0.132-0.432,0.132c-0.419,0-0.719-0.228-0.731-0.936c-0.432,0.624-1.188,1.008-2.075,1.008
			c-1.235,0-1.967-0.659-1.967-1.643c0-1.332,1.271-1.907,3.874-1.955h0.156V135.142z M39.337,136.449v-0.444l-0.324,0.012
			c-1.679,0.061-2.542,0.372-2.542,1.151c0,0.517,0.408,0.84,1.091,0.84C38.594,138.008,39.337,137.36,39.337,136.449z"/>
		<path fill="#999999" d="M41.62,137.648c0-0.372,0.432-0.564,0.468-0.54c0.384,0.492,1.031,0.863,1.943,0.863
			c0.815,0,1.271-0.3,1.271-0.779c0-0.588-0.54-0.695-1.487-0.899c-0.852-0.18-2.027-0.443-2.027-1.667
			c0-1.079,0.9-1.812,2.303-1.812c1.476,0,2.219,0.624,2.219,1.164c0,0.371-0.456,0.587-0.48,0.552
			c-0.36-0.48-0.959-0.816-1.691-0.816c-0.816,0-1.248,0.312-1.248,0.792c0,0.527,0.504,0.647,1.439,0.852
			c0.887,0.191,2.123,0.456,2.123,1.703c0,1.104-0.911,1.811-2.398,1.811C42.447,138.871,41.62,138.2,41.62,137.648z"/>
		<path fill="#999999" d="M47.739,133.93c-0.372,0-0.516-0.155-0.516-0.443v-0.084c0-0.288,0.144-0.443,0.516-0.443h0.42v-0.888
			c0-0.408,0.204-0.563,0.527-0.563h0.12c0.312,0,0.516,0.119,0.516,0.563v0.888h1.307c0.372,0,0.504,0.144,0.504,0.432v0.084
			c0,0.3-0.144,0.455-0.516,0.455H49.31v2.915c0,0.72,0.204,1.067,0.768,1.067c0.372,0,0.635-0.168,0.815-0.408
			c0.036-0.036,0.336,0.132,0.336,0.504c0,0.444-0.492,0.876-1.343,0.876c-1.188,0-1.727-0.66-1.727-1.907v-3.047H47.739z"/>
		<path fill="#999999" d="M55.406,138.416l-1.439-5.17c-0.024-0.071,0.36-0.348,0.708-0.348c0.252,0,0.528,0.145,0.624,0.636
			l0.899,4.042l1.104-3.49c0.084-0.288,0.288-0.42,0.731-0.42c0.432,0,0.636,0.132,0.72,0.42l1.067,3.466l0.887-4.018
			c0.084-0.491,0.372-0.636,0.612-0.636c0.348,0,0.696,0.288,0.684,0.348l-1.427,5.17c-0.072,0.287-0.288,0.384-0.72,0.384
			c-0.492,0-0.624-0.097-0.731-0.42l-1.115-3.49l-1.151,3.49c-0.108,0.312-0.252,0.42-0.72,0.42
			C55.706,138.8,55.49,138.703,55.406,138.416z"/>
		<path fill="#999999" d="M65.761,137.948c1.007,0,1.511-0.444,1.811-0.96c0.024-0.023,0.624,0.084,0.624,0.588
			s-0.887,1.308-2.458,1.308c-1.823,0-3.046-1.212-3.046-3.011c0-1.751,1.248-3.059,2.95-3.059c1.667,0,2.771,1.176,2.771,2.902
			v0.097c0,0.252-0.084,0.348-0.36,0.348h-4.246C63.89,137.217,64.67,137.948,65.761,137.948z M67.26,135.357
			c-0.06-0.995-0.671-1.644-1.631-1.644c-0.948,0-1.679,0.684-1.823,1.644H67.26z"/>
		<path fill="#999999" d="M72.361,137.948c1.007,0,1.511-0.444,1.811-0.96c0.024-0.023,0.624,0.084,0.624,0.588
			s-0.887,1.308-2.458,1.308c-1.823,0-3.046-1.212-3.046-3.011c0-1.751,1.248-3.059,2.95-3.059c1.667,0,2.771,1.176,2.771,2.902
			v0.097c0,0.252-0.084,0.348-0.36,0.348h-4.246C70.49,137.217,71.27,137.948,72.361,137.948z M73.86,135.357
			c-0.06-0.995-0.671-1.644-1.631-1.644c-0.948,0-1.679,0.684-1.823,1.644H73.86z"/>
		<path fill="#999999" d="M77.426,138.212c0,0.432-0.228,0.563-0.528,0.563h-0.132c-0.312,0-0.528-0.132-0.528-0.563v-7.592
			c0-0.036,0.192-0.132,0.432-0.132c0.359,0,0.755,0.191,0.755,1.02v4.029l2.003-2.23c0.24-0.3,0.492-0.408,0.708-0.408
			c0.42,0,0.66,0.408,0.612,0.468l-2.099,2.315l2.423,2.626c0.036,0.061-0.228,0.479-0.647,0.479c-0.228,0-0.456-0.096-0.708-0.407
			l-2.291-2.471V138.212z"/>
	</g>
	<g>
		<path fill="#515354" d="M99.996,94.587c-1.16,0-1.971-0.621-1.971-1.538c0-0.621,0.54-1.026,0.567-0.999
			c0.351,0.405,0.837,0.675,1.538,0.675c1.161,0,2.052-0.945,2.105-2.105h0.783c0.54,0,0.81,0.297,0.81,0.837v16.007
			c0,0.566-0.27,0.837-0.81,0.837h-0.243c-0.513,0-0.782-0.271-0.782-0.837V93.588C101.562,94.183,100.86,94.587,99.996,94.587z"/>
		<path fill="#515354" d="M113.252,97.367c3.671,0,6.127,2.159,6.127,5.479c0,3.482-2.51,5.669-6.532,5.669
			c-3.562,0-5.992-2.052-5.992-3.455c0-0.783,1.025-1.107,1.079-0.999c0.837,1.7,2.538,2.808,4.967,2.808
			c2.808,0,4.644-1.539,4.644-3.941c0-2.375-1.674-3.86-4.319-3.86c-2.024,0-3.374,0.514-4.454,1.296
			c-0.837-0.107-1.16-0.566-1.16-1.269v-7.342c0-0.567,0.459-1.026,1.025-1.026h9.016c0.54,0,0.837,0.27,0.837,0.783v0.135
			c0,0.486-0.297,0.756-0.837,0.756h-8.287v5.885C110.472,97.745,111.713,97.367,113.252,97.367z"/>
		<path fill="#515354" d="M121.407,93.797v-0.145c0-1.638,1.225-2.791,2.971-2.791c1.747,0,2.935,1.134,2.935,2.773v0.144
			c0,1.639-1.224,2.791-2.952,2.791C122.613,96.569,121.407,95.436,121.407,93.797z M122.361,102.007
			c0-0.306,0.126-0.54,0.486-0.918l9.057-10.263c0.108-0.108,1.135,0.216,1.135,0.865c0,0.252-0.127,0.558-0.469,0.936
			l-9.074,10.264C123.405,102.997,122.361,102.638,122.361,102.007z M125.566,93.851v-0.27c0-0.829-0.522-1.333-1.206-1.333
			c-0.702,0-1.188,0.486-1.188,1.333v0.27c0,0.828,0.504,1.333,1.206,1.333C125.062,95.184,125.566,94.679,125.566,93.851z
			 M128.141,100.081v-0.145c0-1.639,1.225-2.791,2.972-2.791c1.729,0,2.935,1.135,2.935,2.773v0.144
			c0,1.639-1.225,2.791-2.953,2.791C129.348,102.854,128.141,101.719,128.141,100.081z M132.301,100.135v-0.271
			c0-0.828-0.522-1.351-1.207-1.351c-0.702,0-1.188,0.505-1.188,1.351v0.271c0,0.811,0.505,1.314,1.207,1.314
			C131.778,101.449,132.301,100.963,132.301,100.135z"/>
	</g>
	<g>
		<path fill="#999999" d="M99.4,124.544v-6.381c0-0.419,0.288-0.695,0.66-0.695h1.895c2.639,0,4.21,1.439,4.21,3.862
			c0,2.422-1.607,3.897-4.27,3.897h-1.812C99.7,125.228,99.4,124.916,99.4,124.544z M101.919,124.16
			c1.896,0,2.999-1.031,2.999-2.818c0-1.763-1.115-2.807-2.986-2.807h-1.308v5.625H101.919z"/>
		<path fill="#999999" d="M110.271,124.448c1.008,0,1.511-0.444,1.811-0.96c0.024-0.023,0.624,0.084,0.624,0.588
			s-0.888,1.308-2.459,1.308c-1.822,0-3.046-1.212-3.046-3.011c0-1.751,1.247-3.059,2.95-3.059c1.667,0,2.771,1.176,2.771,2.902
			v0.097c0,0.252-0.084,0.348-0.359,0.348h-4.246C108.4,123.717,109.18,124.448,110.271,124.448z M111.771,121.857
			c-0.06-0.995-0.672-1.644-1.631-1.644c-0.947,0-1.679,0.684-1.823,1.644H111.771z"/>
		<path fill="#999999" d="M113.801,122.337c0-1.751,1.271-3.022,2.998-3.022c1.716,0,2.471,1.056,2.471,1.596
			c0,0.491-0.672,0.588-0.707,0.527c-0.265-0.636-0.756-1.127-1.739-1.127c-1.079,0-1.896,0.852-1.896,2.026
			c0,1.188,0.804,2.051,1.896,2.051c0.972,0,1.475-0.491,1.739-1.127c0.035-0.061,0.707,0.023,0.707,0.54
			c0,0.527-0.768,1.583-2.471,1.583C115.061,125.384,113.801,124.112,113.801,122.337z"/>
		<path fill="#999999" d="M123.1,119.314c0.6,0,0.947,0.288,0.947,0.768c0,0.456-0.336,0.636-0.359,0.612
			c-0.18-0.145-0.408-0.252-0.731-0.252c-0.936,0-1.308,0.911-1.308,2.242v2.027c0,0.432-0.228,0.563-0.527,0.563h-0.132
			c-0.312,0-0.528-0.132-0.528-0.563v-5.182c0-0.035,0.192-0.132,0.432-0.132c0.36,0,0.731,0.192,0.744,1.008
			C121.889,119.698,122.368,119.314,123.1,119.314z"/>
		<path fill="#999999" d="M127.587,124.448c1.008,0,1.511-0.444,1.811-0.96c0.024-0.023,0.624,0.084,0.624,0.588
			s-0.888,1.308-2.459,1.308c-1.822,0-3.046-1.212-3.046-3.011c0-1.751,1.247-3.059,2.95-3.059c1.667,0,2.771,1.176,2.771,2.902
			v0.097c0,0.252-0.084,0.348-0.359,0.348h-4.246C125.716,123.717,126.495,124.448,127.587,124.448z M129.086,121.857
			c-0.06-0.995-0.672-1.644-1.631-1.644c-0.947,0-1.679,0.684-1.823,1.644H129.086z"/>
		<path fill="#999999" d="M135.158,121.642c0-0.876-0.504-1.355-1.428-1.355c-0.875,0-1.391,0.456-1.654,0.983
			c0,0.012-0.732,0-0.732-0.575c0-0.552,0.84-1.38,2.471-1.38c1.632,0,2.519,0.84,2.519,2.303v3.538
			c0,0.061-0.216,0.132-0.432,0.132c-0.42,0-0.72-0.228-0.731-0.936c-0.432,0.624-1.188,1.008-2.075,1.008
			c-1.235,0-1.967-0.659-1.967-1.643c0-1.332,1.271-1.907,3.874-1.955h0.156V121.642z M135.158,122.949v-0.444l-0.324,0.012
			c-1.679,0.061-2.542,0.372-2.542,1.151c0,0.517,0.407,0.84,1.091,0.84C134.414,124.508,135.158,123.86,135.158,122.949z"/>
		<path fill="#999999" d="M137.44,124.148c0-0.372,0.432-0.564,0.468-0.54c0.384,0.492,1.031,0.863,1.943,0.863
			c0.815,0,1.271-0.3,1.271-0.779c0-0.588-0.54-0.695-1.487-0.899c-0.852-0.18-2.027-0.443-2.027-1.667
			c0-1.079,0.899-1.812,2.303-1.812c1.476,0,2.219,0.624,2.219,1.164c0,0.371-0.455,0.587-0.479,0.552
			c-0.359-0.48-0.959-0.816-1.691-0.816c-0.815,0-1.247,0.312-1.247,0.792c0,0.527,0.504,0.647,1.439,0.852
			c0.888,0.191,2.123,0.456,2.123,1.703c0,1.104-0.912,1.811-2.399,1.811C138.269,125.371,137.44,124.7,137.44,124.148z"/>
		<path fill="#999999" d="M146.271,124.448c1.008,0,1.511-0.444,1.811-0.96c0.024-0.023,0.624,0.084,0.624,0.588
			s-0.888,1.308-2.459,1.308c-1.822,0-3.046-1.212-3.046-3.011c0-1.751,1.247-3.059,2.95-3.059c1.667,0,2.771,1.176,2.771,2.902
			v0.097c0,0.252-0.084,0.348-0.359,0.348h-4.246C144.399,123.717,145.179,124.448,146.271,124.448z M147.77,121.857
			c-0.06-0.995-0.672-1.644-1.631-1.644c-0.947,0-1.679,0.684-1.823,1.644H147.77z"/>
		<path fill="#999999" d="M99.316,133.93c-0.371,0-0.516-0.155-0.516-0.443v-0.084c0-0.288,0.145-0.443,0.516-0.443h0.42v-0.888
			c0-0.408,0.204-0.563,0.528-0.563h0.119c0.312,0,0.517,0.119,0.517,0.563v0.888h1.307c0.372,0,0.504,0.144,0.504,0.432v0.084
			c0,0.3-0.144,0.455-0.516,0.455h-1.308v2.915c0,0.72,0.204,1.067,0.768,1.067c0.372,0,0.636-0.168,0.815-0.408
			c0.036-0.036,0.336,0.132,0.336,0.504c0,0.444-0.491,0.876-1.343,0.876c-1.188,0-1.728-0.66-1.728-1.907v-3.047H99.316z"/>
		<path fill="#999999" d="M106.972,132.814c1.522,0,2.23,1.056,2.23,2.495v2.902c0,0.432-0.228,0.563-0.527,0.563h-0.132
			c-0.312,0-0.528-0.132-0.528-0.563v-2.771c0-0.995-0.504-1.583-1.331-1.583c-0.983,0-1.619,0.647-1.619,1.69v2.663
			c0,0.432-0.228,0.563-0.527,0.563h-0.132c-0.312,0-0.528-0.132-0.528-0.563v-7.592c0-0.036,0.192-0.132,0.432-0.132
			c0.36,0,0.756,0.191,0.756,1.02v2.362C105.448,133.259,106.072,132.814,106.972,132.814z"/>
		<path fill="#999999" d="M110.669,131.063c0-0.432,0.264-0.671,0.72-0.671c0.443,0,0.695,0.239,0.695,0.671s-0.252,0.66-0.708,0.66
			C110.933,131.724,110.669,131.483,110.669,131.063z M110.776,138.212v-4.737c0-0.432,0.229-0.576,0.54-0.576h0.12
			c0.312,0,0.527,0.132,0.527,0.576v4.737c0,0.432-0.216,0.563-0.527,0.563h-0.12C111.005,138.775,110.776,138.644,110.776,138.212z
			"/>
		<path fill="#999999" d="M113.188,137.648c0-0.372,0.432-0.564,0.468-0.54c0.384,0.492,1.031,0.863,1.943,0.863
			c0.815,0,1.271-0.3,1.271-0.779c0-0.588-0.54-0.695-1.487-0.899c-0.852-0.18-2.027-0.443-2.027-1.667
			c0-1.079,0.899-1.812,2.303-1.812c1.476,0,2.219,0.624,2.219,1.164c0,0.371-0.455,0.587-0.479,0.552
			c-0.359-0.48-0.959-0.816-1.691-0.816c-0.815,0-1.247,0.312-1.247,0.792c0,0.527,0.504,0.647,1.439,0.852
			c0.888,0.191,2.123,0.456,2.123,1.703c0,1.104-0.912,1.811-2.399,1.811C114.017,138.871,113.188,138.2,113.188,137.648z"/>
		<path fill="#999999" d="M122.402,138.416l-1.438-5.17c-0.024-0.071,0.359-0.348,0.707-0.348c0.252,0,0.528,0.145,0.624,0.636
			l0.899,4.042l1.104-3.49c0.084-0.288,0.288-0.42,0.731-0.42c0.432,0,0.636,0.132,0.72,0.42l1.067,3.466l0.888-4.018
			c0.084-0.491,0.371-0.636,0.611-0.636c0.348,0,0.695,0.288,0.684,0.348l-1.427,5.17c-0.072,0.287-0.288,0.384-0.72,0.384
			c-0.492,0-0.624-0.097-0.731-0.42l-1.116-3.49l-1.151,3.49c-0.107,0.312-0.252,0.42-0.719,0.42
			C122.702,138.8,122.486,138.703,122.402,138.416z"/>
		<path fill="#999999" d="M132.758,137.948c1.008,0,1.511-0.444,1.811-0.96c0.024-0.023,0.624,0.084,0.624,0.588
			s-0.888,1.308-2.459,1.308c-1.822,0-3.046-1.212-3.046-3.011c0-1.751,1.247-3.059,2.95-3.059c1.667,0,2.771,1.176,2.771,2.902
			v0.097c0,0.252-0.084,0.348-0.359,0.348h-4.246C130.887,137.217,131.666,137.948,132.758,137.948z M134.257,135.357
			c-0.06-0.995-0.672-1.644-1.631-1.644c-0.947,0-1.679,0.684-1.823,1.644H134.257z"/>
		<path fill="#999999" d="M139.357,137.948c1.008,0,1.511-0.444,1.811-0.96c0.024-0.023,0.624,0.084,0.624,0.588
			s-0.888,1.308-2.459,1.308c-1.822,0-3.046-1.212-3.046-3.011c0-1.751,1.247-3.059,2.95-3.059c1.667,0,2.771,1.176,2.771,2.902
			v0.097c0,0.252-0.084,0.348-0.359,0.348h-4.246C137.486,137.217,138.266,137.948,139.357,137.948z M140.856,135.357
			c-0.06-0.995-0.672-1.644-1.631-1.644c-0.947,0-1.679,0.684-1.823,1.644H140.856z"/>
		<path fill="#999999" d="M144.422,138.212c0,0.432-0.228,0.563-0.527,0.563h-0.132c-0.312,0-0.528-0.132-0.528-0.563v-7.592
			c0-0.036,0.192-0.132,0.432-0.132c0.36,0,0.756,0.191,0.756,1.02v4.029l2.003-2.23c0.24-0.3,0.491-0.408,0.708-0.408
			c0.419,0,0.659,0.408,0.611,0.468l-2.099,2.315l2.423,2.626c0.035,0.061-0.229,0.479-0.648,0.479
			c-0.228,0-0.455-0.096-0.707-0.407l-2.291-2.471V138.212z"/>
	</g>
	<g>
		<path fill="#6C6C6C" d="M52.607,41.817c0,0.559-0.27,0.847-0.811,0.847h-0.252c-0.522,0-0.792-0.288-0.792-0.847v-4.015
			l-4.124-6.176c-0.054-0.126,0.288-0.756,1.17-0.756c0.342,0,0.666,0.216,0.9,0.648l2.989,4.753l2.989-4.753
			c0.288-0.468,0.612-0.648,0.918-0.648c0.81,0,1.188,0.648,1.116,0.756l-4.105,6.176V41.817z"/>
		<path fill="#6C6C6C" d="M56.062,38.252c0-2.647,1.873-4.537,4.555-4.537c2.647,0,4.52,1.908,4.52,4.573
			c0,2.647-1.873,4.537-4.538,4.537C57.916,42.826,56.062,40.936,56.062,38.252z M63.479,38.289c0-1.801-1.206-3.115-2.881-3.115
			c-1.656,0-2.898,1.296-2.898,3.079s1.242,3.115,2.898,3.115C62.255,41.367,63.479,40.053,63.479,38.289z"/>
		<path fill="#6C6C6C" d="M70.247,42.808c-2.287,0-3.331-1.548-3.331-3.709v-4.393c0-0.648,0.324-0.864,0.774-0.864h0.198
			c0.468,0,0.792,0.198,0.792,0.864v4.177c0,1.494,0.756,2.376,2.07,2.376c1.081,0,1.927-0.612,2.377-1.53v-5.023
			c0-0.648,0.324-0.864,0.774-0.864H74.1c0.468,0,0.792,0.198,0.792,0.864v7.76c0,0.054-0.288,0.198-0.63,0.198
			c-0.54,0-1.081-0.271-1.134-1.369C72.534,42.178,71.579,42.808,70.247,42.808z"/>
		<path fill="#6C6C6C" d="M81.227,33.715c0.9,0,1.422,0.432,1.422,1.152c0,0.684-0.504,0.954-0.54,0.918
			c-0.27-0.216-0.612-0.378-1.099-0.378c-1.404,0-1.962,1.368-1.962,3.367v3.043c0,0.648-0.342,0.847-0.792,0.847h-0.198
			c-0.468,0-0.792-0.198-0.792-0.847v-7.778c0-0.054,0.288-0.198,0.648-0.198c0.54,0,1.098,0.288,1.116,1.512
			C79.408,34.292,80.128,33.715,81.227,33.715z"/>
		<path fill="#6C6C6C" d="M90.641,42.808c-2.287,0-3.331-1.548-3.331-3.709v-4.393c0-0.648,0.324-0.864,0.774-0.864h0.198
			c0.468,0,0.792,0.198,0.792,0.864v4.177c0,1.494,0.756,2.376,2.07,2.376c1.08,0,1.927-0.612,2.377-1.53v-5.023
			c0-0.648,0.324-0.864,0.774-0.864h0.198c0.468,0,0.792,0.198,0.792,0.864v7.76c0,0.054-0.288,0.198-0.631,0.198
			c-0.54,0-1.08-0.271-1.134-1.369C92.927,42.178,91.973,42.808,90.641,42.808z"/>
		<path fill="#6C6C6C" d="M97.028,40.971c0-0.558,0.648-0.846,0.702-0.81c0.576,0.738,1.549,1.296,2.917,1.296
			c1.225,0,1.909-0.45,1.909-1.17c0-0.882-0.811-1.044-2.233-1.351c-1.278-0.27-3.042-0.666-3.042-2.502
			c0-1.621,1.35-2.719,3.457-2.719c2.214,0,3.33,0.936,3.33,1.747c0,0.558-0.684,0.882-0.72,0.828
			c-0.54-0.72-1.44-1.225-2.539-1.225c-1.224,0-1.872,0.468-1.872,1.188c0,0.792,0.756,0.972,2.16,1.278
			c1.333,0.288,3.188,0.684,3.188,2.557c0,1.657-1.369,2.719-3.602,2.719C98.271,42.808,97.028,41.8,97.028,40.971z"/>
		<path fill="#6C6C6C" d="M111.736,37.208c0-1.314-0.756-2.034-2.143-2.034c-1.314,0-2.088,0.684-2.484,1.476
			c0,0.018-1.099,0-1.099-0.864c0-0.828,1.261-2.07,3.709-2.07c2.449,0,3.781,1.26,3.781,3.457v5.312
			c0,0.09-0.324,0.198-0.647,0.198c-0.631,0-1.081-0.342-1.099-1.404c-0.648,0.937-1.782,1.513-3.115,1.513
			c-1.854,0-2.953-0.99-2.953-2.467c0-1.999,1.909-2.863,5.816-2.935h0.233V37.208z M111.736,39.171v-0.667l-0.485,0.018
			c-2.521,0.09-3.817,0.558-3.817,1.729c0,0.774,0.612,1.261,1.639,1.261C110.62,41.512,111.736,40.539,111.736,39.171z"/>
		<path fill="#6C6C6C" d="M121.528,33.409c0.288-0.468,0.576-0.685,1.026-0.685c0.666,0,0.973,0.721,0.918,0.756l-1.458,1.513
			c0.468,0.54,0.738,1.206,0.738,1.944c0,1.819-1.549,3.151-3.745,3.151c-0.108,0-0.216,0-0.324-0.018
			c-0.072,0.108-0.09,0.216-0.09,0.324c0,0.558,0.828,0.612,2.341,0.99c1.225,0.324,2.521,0.937,2.521,2.359
			c0,1.639-1.675,2.647-4.537,2.647c-2.917,0-4.268-0.774-4.268-2.395c0-1.26,1.188-2.106,2.773-2.376
			c-0.217-0.18-0.36-0.45-0.36-0.811c0-0.36,0.198-0.702,0.486-0.936c-1.387-0.45-2.27-1.53-2.27-2.881
			c0-1.818,1.567-3.277,3.71-3.277c0.773,0,1.476,0.198,2.07,0.522L121.528,33.409z M116.361,43.942
			c0,0.774,0.882,1.206,2.593,1.206c1.746,0,2.772-0.486,2.772-1.35c0-0.882-1.387-1.062-2.665-1.387
			C117.604,42.502,116.361,43.024,116.361,43.942z M121.024,36.956c0-1.152-0.828-1.962-2.053-1.962
			c-1.17,0-1.998,0.792-1.998,1.962s0.846,1.963,2.034,1.963S121.024,38.126,121.024,36.956z"/>
		<path fill="#6C6C6C" d="M128.943,41.421c1.513,0,2.269-0.666,2.719-1.44c0.036-0.036,0.937,0.126,0.937,0.882
			s-1.333,1.962-3.691,1.962c-2.736,0-4.573-1.818-4.573-4.519c0-2.629,1.873-4.591,4.43-4.591c2.502,0,4.159,1.764,4.159,4.357
			v0.144c0,0.378-0.126,0.522-0.54,0.522h-6.374C126.135,40.323,127.305,41.421,128.943,41.421z M131.194,37.532
			c-0.091-1.494-1.009-2.467-2.449-2.467c-1.422,0-2.521,1.026-2.736,2.467H131.194z"/>
	</g>
</g>
</svg>
